<?xml version="1.0" encoding="UTF-8"?> <svg xmlns="http://www.w3.org/2000/svg" width="702" height="138" viewBox="0 0 702 138" fill="none"> <path d="M356.999 0.925156L348.789 41.9771H342.924L346.56 23.7969H322.985L319.349 41.9771H313.484L321.695 0.925156H327.559L324.04 18.5188H347.616L351.135 0.925156H356.999Z" fill="#00D622"></path> <path d="M389.637 31.7141H367.703L361.194 41.9771H354.86L381.72 0.925156H387.526L397.906 41.9771H392.1L389.637 31.7141ZM388.464 27.0224L383.596 6.78971L370.694 27.0224H388.464Z" fill="#00D622"></path> <path d="M423.514 42.4462C419.448 42.4462 415.948 41.7229 413.016 40.2763C410.084 38.8297 407.836 36.8162 406.272 34.2358C404.708 31.6163 403.926 28.5863 403.926 25.1458C403.926 20.5714 404.962 16.4076 407.034 12.6543C409.106 8.90095 412.039 5.92958 415.831 3.74014C419.663 1.55071 424.081 0.455994 429.085 0.455994C432.487 0.455994 435.497 1.0229 438.117 2.15671C440.736 3.25143 442.75 4.81531 444.157 6.84836L439.935 10.4844C437.471 7.27843 433.718 5.67545 428.675 5.67545C424.882 5.67545 421.559 6.53558 418.705 8.25585C415.851 9.97612 413.642 12.3024 412.078 15.2347C410.553 18.1279 409.791 21.3143 409.791 24.7939C409.791 28.5863 411.003 31.6163 413.427 33.884C415.89 36.1125 419.389 37.2268 423.924 37.2268C428.968 37.2268 433.112 35.6042 436.357 32.3592L439.759 36.2298C437.882 38.2628 435.536 39.8072 432.721 40.8628C429.945 41.9184 426.876 42.4462 423.514 42.4462Z" fill="#00D622"></path> <path d="M467.067 20.1023L481.905 41.9771H475.336L462.845 23.5623L453.813 31.3036L451.702 41.9771H445.838L454.048 0.925156H459.913L455.397 23.621L481.67 0.925156H489.294L467.185 19.985L467.067 20.1023Z" fill="#00D622"></path> <path d="M514.889 31.7141H492.955L486.445 41.9771H480.112L506.971 0.925156H512.777L523.158 41.9771H517.352L514.889 31.7141ZM513.716 27.0224L508.848 6.78971L495.946 27.0224H513.716Z" fill="#00D622"></path> <path d="M542.526 6.02732H528.51L529.507 0.925156H563.463L562.407 6.02732H548.391L541.177 41.9771H535.371L542.526 6.02732Z" fill="#00D622"></path> <path d="M605.155 0.925156L596.944 41.9771H591.08L594.716 23.7969H571.14L567.504 41.9771H561.64L569.85 0.925156H575.715L572.196 18.5188H595.771L599.29 0.925156H605.155Z" fill="#00D622"></path> <path d="M628.995 42.4462C624.968 42.4462 621.508 41.7229 618.615 40.2763C615.722 38.8297 613.513 36.8162 611.988 34.2358C610.463 31.6163 609.701 28.5863 609.701 25.1458C609.701 20.5714 610.737 16.4076 612.809 12.6543C614.881 8.90095 617.794 5.92958 621.547 3.74014C625.34 1.55071 629.699 0.455994 634.625 0.455994C638.652 0.455994 642.113 1.17929 645.006 2.62588C647.938 4.07247 650.167 6.10552 651.691 8.72502C653.216 11.3054 653.978 14.3159 653.978 17.7564C653.978 22.3308 652.942 26.4946 650.87 30.2479C648.798 34.0013 645.866 36.9726 642.073 39.1621C638.281 41.3515 633.922 42.4462 628.995 42.4462ZM629.523 37.2268C633.198 37.2268 636.443 36.3666 639.258 34.6464C642.073 32.9261 644.243 30.6194 645.768 27.7262C647.293 24.7939 648.055 21.5879 648.055 18.1083C648.055 14.3159 646.843 11.3054 644.419 9.07689C642.034 6.80926 638.613 5.67545 634.156 5.67545C630.481 5.67545 627.236 6.53558 624.421 8.25585C621.606 9.97612 619.417 12.3024 617.853 15.2347C616.328 18.167 615.566 21.3534 615.566 24.7939C615.566 28.5863 616.778 31.6163 619.202 33.884C621.626 36.1125 625.066 37.2268 629.523 37.2268Z" fill="#00D622"></path> <path d="M702 0.925156L693.79 41.9771H688.981L670.625 10.3671L664.35 41.9771H658.485L666.695 0.925156H671.504L689.86 32.5351L696.135 0.925156H702Z" fill="#00D622"></path> <path fill-rule="evenodd" clip-rule="evenodd" d="M279.567 16.567H253.501L228.287 135.67H254.353L279.567 16.567ZM50.3646 16.5681H15.4628L0 93.8822H41.4182C50.7696 93.8822 59.09 92.0782 66.3796 88.4702C73.7429 84.7886 79.4862 79.5975 83.6096 72.8969C87.733 66.1228 89.7948 58.2809 89.7948 49.3714C89.7948 42.6708 88.2116 36.8539 85.0454 31.9205C81.8793 26.9871 77.3141 23.1951 71.3498 20.5443C65.4592 17.8935 58.4641 16.5681 50.3646 16.5681ZM57.8751 67.2641C54.1935 71.4611 49.0024 73.5596 42.3018 73.5596H30.1525L37.4421 36.8907H47.3825C52.6104 36.8907 56.5865 38.1056 59.3109 40.5355C62.109 42.9654 63.508 46.4261 63.508 50.9177C63.508 57.5446 61.6303 62.9934 57.8751 67.2641ZM126.593 45.2848L128.36 36.228H165.582L169.558 16.5681H106.712L91.2496 93.8822H155.531L159.507 74.2223H120.739L122.727 64.061H155.531L159.286 45.2848H126.593ZM203.118 36.228L200.467 49.4818H232.718L228.742 69.1417H196.601L191.631 93.8822H165.565L181.028 16.5681H243.873L239.897 36.228H203.118ZM527.917 133.131C533.881 136.003 540.802 137.439 548.681 137.439C558.032 137.439 566.39 135.487 573.753 131.585C581.19 127.682 586.97 122.233 591.093 115.238C595.29 108.17 597.389 100.144 597.389 91.1605C597.389 84.3864 595.769 78.3853 592.529 73.1574C589.363 67.9295 584.798 63.8797 578.833 61.0081C572.943 58.0628 566.058 56.5901 558.18 56.5901C548.828 56.5901 540.434 58.5414 532.997 62.4439C525.634 66.3464 519.854 71.832 515.657 78.9007C511.533 85.8958 509.472 93.8849 509.472 102.868C509.472 109.642 511.055 115.643 514.221 120.871C517.461 126.099 522.026 130.186 527.917 133.131ZM561.603 113.14C558.584 115.275 555.013 116.343 550.89 116.343C546.177 116.343 542.459 114.981 539.735 112.256C537.084 109.532 535.758 105.887 535.758 101.322C535.758 97.0511 536.568 93.1118 538.188 89.5038C539.808 85.8958 542.128 83.0242 545.147 80.8888C548.239 78.7535 551.847 77.6858 555.971 77.6858C560.683 77.6858 564.365 79.048 567.015 81.7724C569.74 84.4968 571.102 88.1416 571.102 92.7068C571.102 96.9775 570.292 100.917 568.672 104.525C567.052 108.133 564.696 111.004 561.603 113.14ZM358.574 58.3573L343.111 135.671H321.684L299.484 99.6651L292.305 135.671H266.901L282.364 58.3573H303.791L325.991 94.3635L333.171 58.3573H358.574ZM371.133 58.3573H397.199L381.736 135.671H355.67L371.133 58.3573ZM399.807 78.5694H422.448L411.072 135.671H437.138L448.514 78.5694H471.156L475.243 58.3573H403.893L399.807 78.5694ZM482.013 58.3573H508.079L492.616 135.671H466.55L482.013 58.3573ZM690.459 58.3573L674.996 135.671H653.569L631.369 99.6651L624.19 135.671H598.787L614.25 58.3573H635.677L657.877 94.3635L665.056 58.3573H690.459Z" fill="black"></path> </svg> 